<svg xmlns="http://www.w3.org/2000/svg" version="1.1" xmlns:xlink="http://www.w3.org/1999/xlink" xmlns:svgjs="http://svgjs.dev/svgjs" width="1500" height="1500" viewBox="0 0 1500 1500"><rect width="1500" height="1500" fill="#ffffff"></rect><g transform="matrix(0.6666666666666666,0,0,0.6666666666666666,249.39393939393938,598.3176761845144)"><svg viewBox="0 0 396 120" data-background-color="#ffffff" preserveAspectRatio="xMidYMid meet" height="454" width="1500" xmlns="http://www.w3.org/2000/svg" xmlns:xlink="http://www.w3.org/1999/xlink"><g id="tight-bounds" transform="matrix(1,0,0,1,0.2400000000000091,0.1383662704567996)"><svg viewBox="0 0 395.52 119.72326745908637" height="119.72326745908637" width="395.52"><g><svg viewBox="0 0 612.6450365183741 185.44666657709104" height="119.72326745908637" width="395.52"><g transform="matrix(1,0,0,1,217.1250365183742,25.62974914343299)"><svg viewBox="0 0 395.52 134.18716829022506" height="134.18716829022506" width="395.52"><g id="textblocktransform"><svg viewBox="0 0 395.52 134.18716829022506" height="134.18716829022506" width="395.52" id="textblock"><g><svg viewBox="0 0 395.52 134.18716829022506" height="134.18716829022506" width="395.52"><g transform="matrix(1,0,0,1,0,0)"><svg width="395.52" viewBox="3 -39.65 148.84 50.5" height="134.18716829022506" data-palette-color="#0bba7b"><path d="M10.9-34.55Q17.15-34.55 20.43-31.78 23.7-29 23.7-23.6L23.7-23.6Q23.7-17.85 20.48-15 17.25-12.15 11.35-12.15L11.35-12.15 9.35-12.15 9.35 0 3 0 3-34.55 10.9-34.55ZM11-16.9Q14.25-16.9 15.7-18.4 17.15-19.9 17.15-23.55L17.15-23.55Q17.15-26.85 15.7-28.35 14.25-29.85 11.05-29.85L11.05-29.85 9.35-29.85 9.35-16.9 11-16.9ZM38.95-27.1Q40.1-27.1 41-26.75L41-26.75 40-20.85Q39-21.1 38.15-21.1L38.15-21.1Q36.25-21.1 35.15-19.45 34.05-17.8 33.45-14.55L33.45-14.55 33.45 0 27.3 0 27.3-26.45 32.65-26.45 33.1-21.85Q34.95-27.1 38.95-27.1L38.95-27.1ZM43.85-26.45L50-26.45 50 0 43.85 0 43.85-26.45ZM46.9-39.65Q48.55-39.65 49.57-38.6 50.6-37.55 50.6-35.9L50.6-35.9Q50.6-34.3 49.57-33.25 48.55-32.2 46.9-32.2L46.9-32.2Q45.25-32.2 44.22-33.25 43.2-34.3 43.2-35.9L43.2-35.9Q43.2-37.55 44.22-38.6 45.25-39.65 46.9-39.65L46.9-39.65ZM79.34-27.15Q81.99-27.15 83.59-25.1 85.19-23.05 85.19-19.6L85.19-19.6 85.19 0 79.14 0 79.14-18.95Q79.14-20.85 78.64-21.68 78.14-22.5 77.19-22.5L77.19-22.5Q75.24-22.5 73.44-18.8L73.44-18.8 73.44 0 67.44 0 67.44-18.95Q67.44-22.5 65.54-22.5L65.54-22.5Q63.49-22.5 61.74-18.8L61.74-18.8 61.74 0 55.69 0 55.69-26.45 61.04-26.45 61.44-23.05Q64.04-27.15 67.69-27.15L67.69-27.15Q69.54-27.15 70.89-26 72.24-24.85 72.94-22.75L72.94-22.75Q75.59-27.15 79.34-27.15L79.34-27.15ZM107.59-6.4Q107.59-5.1 107.94-4.48 108.29-3.85 109.09-3.45L109.09-3.45 107.84 0.65Q105.79 0.4 104.56-0.45 103.34-1.3 102.74-3.05L102.74-3.05Q100.44 0.75 96.29 0.75L96.29 0.75Q92.99 0.75 91.04-1.48 89.09-3.7 89.09-7.4L89.09-7.4Q89.09-11.7 91.77-13.95 94.44-16.2 99.54-16.2L99.54-16.2 101.59-16.2 101.59-18.05Q101.59-20.55 100.72-21.58 99.84-22.6 97.89-22.6L97.89-22.6Q95.54-22.6 92.04-21.3L92.04-21.3 90.64-25.3Q92.64-26.2 94.79-26.68 96.94-27.15 98.89-27.15L98.89-27.15Q107.59-27.15 107.59-18.35L107.59-18.35 107.59-6.4ZM97.94-3.7Q100.34-3.7 101.59-7L101.59-7 101.59-12.55 100.14-12.55Q97.59-12.55 96.42-11.4 95.24-10.25 95.24-7.85L95.24-7.85Q95.24-5.8 95.94-4.75 96.64-3.7 97.94-3.7L97.94-3.7ZM122.89-27.15Q125.04-27.15 126.79-26.43 128.54-25.7 130.14-24.15L130.14-24.15 127.49-20.65Q126.39-21.55 125.41-21.98 124.44-22.4 123.29-22.4L123.29-22.4Q121.04-22.4 119.89-20.28 118.74-18.15 118.74-13.1L118.74-13.1Q118.74-8.2 119.91-6.2 121.09-4.2 123.29-4.2L123.29-4.2Q124.39-4.2 125.29-4.6 126.19-5 127.39-5.85L127.39-5.85 130.14-2.3Q126.94 0.75 122.99 0.75L122.99 0.75Q117.89 0.75 115.06-2.73 112.24-6.2 112.24-13L112.24-13Q112.24-17.4 113.54-20.6 114.84-23.8 117.26-25.48 119.69-27.15 122.89-27.15L122.89-27.15ZM151.84-26.45L144.84 0.1Q143.53 4.9 140.64 7.65 137.74 10.4 132.89 10.85L132.89 10.85 132.19 6.5Q135.34 5.85 136.91 4.42 138.49 3 139.39 0L139.39 0 137.09 0 130.39-26.45 136.64-26.45 141.03-4.1 145.74-26.45 151.84-26.45Z" opacity="1" transform="matrix(1,0,0,1,0,0)" fill="#0bba7b" class="wordmark-text-0" data-fill-palette-color="primary" id="text-0"></path></svg></g></svg></g></svg></g></svg></g><g><svg viewBox="0 0 185.44666657709104 185.44666657709104" height="185.44666657709104" width="185.44666657709104"><g><svg xmlns="http://www.w3.org/2000/svg" xmlns:xlink="http://www.w3.org/1999/xlink" version="1.1" x="0" y="0" viewBox="0 0 90 90" enable-background="new 0 0 90 90" xml:space="preserve" height="185.44666657709104" width="185.44666657709104" class="icon-icon-0" data-fill-palette-color="accent" id="icon-0"><path fill="#272932" d="M89.209 0.791C88.707 0.288 88.011 0 87.3 0H2.7C1.988 0 1.293 0.288 0.79 0.791 0.288 1.293 0 1.988 0 2.7v84.6c0 0.712 0.288 1.407 0.792 1.908C1.293 89.712 1.988 90 2.7 90h84.6c0.711 0 1.407-0.288 1.909-0.792C89.711 88.707 90 88.01 90 87.3V2.7C90 1.99 89.711 1.295 89.209 0.791zM84.6 45.02h-9.925c2.114 2.121 3.424 5.048 3.424 8.279 0 6.479-5.251 11.729-11.729 11.729S54.64 59.777 54.64 53.298c0-3.23 1.31-6.157 3.427-8.278H44.979v-0.002h0.045V31.931c2.121 2.116 5.047 3.425 8.28 3.425 6.479 0 11.728-5.251 11.728-11.729 0-6.479-5.249-11.73-11.728-11.73-3.232 0-6.159 1.31-8.28 3.424V5.398h39.574L84.6 45.02zM5.398 44.982h9.928c-2.114-2.121-3.424-5.048-3.424-8.28 0-6.479 5.251-11.728 11.73-11.728 6.478 0 11.729 5.25 11.729 11.728 0 3.232-1.309 6.159-3.426 8.28h13.087v0.002h-0.045v13.087c-2.121-2.116-5.048-3.425-8.28-3.425-6.479 0-11.728 5.251-11.728 11.729 0 6.479 5.249 11.729 11.728 11.729 3.232 0 6.159-1.311 8.28-3.425v9.92H5.398V44.982z" data-fill-palette-color="accent"></path></svg></g></svg></g></svg></g><defs></defs></svg><rect width="395.52" height="119.72326745908637" fill="none" stroke="none" visibility="hidden"></rect></g></svg></g></svg>